<svg height="512" viewBox="0 0 64 64" width="512" xmlns="http://www.w3.org/2000/svg" xmlns:xlink="http://www.w3.org/1999/xlink"><linearGradient id="New_Gradient_Swatch_3" gradientUnits="userSpaceOnUse" x1="32" x2="32" y1="65.283" y2="2.775"><stop offset="0" stop-color="#006df0"/><stop offset="1" stop-color="#00e7f0"/></linearGradient><linearGradient id="New_Gradient_Swatch_3-2" x1="51" x2="51" xlink:href="#New_Gradient_Swatch_3" y1="65.283" y2="2.775"/><path d="m61 42h-1v-9a1 1 0 0 0 -1-1h-3v-7a1 1 0 0 0 -1-1h-3.586l3.573-3.573a1 1 0 0 0 0-1.414l-16.97-16.97a1 1 0 0 0 -1.414 0l-21.957 21.957h-7.646a4.995 4.995 0 0 0 -5 5v28a5.006 5.006 0 0 0 5 5h52a1 1 0 0 0 1-1v-9h1a1 1 0 0 0 1-1v-8a1 1 0 0 0 -1-1zm-7-16v2h-6.586l2-2zm-16.69-21.836 15.556 15.556-4.572 4.572-3.708 3.708h-2.822l5.453-5.453a1 1 0 0 0 0-1.414 1.984 1.984 0 0 1 0-2.836 1 1 0 0 0 0-1.414l-7.07-7.07a1 1 0 0 0 -1.414 0 2.042 2.042 0 0 1 -2.836 0 1.029 1.029 0 0 0 -1.414 0l-18.177 18.187h-2.832l2.292-2.292zm-.256 23.836a5.991 5.991 0 0 0 -1.154-6.866 6.005 6.005 0 0 0 -9.643 6.866h-7.124l16.145-16.153a4.077 4.077 0 0 0 4.075 0l5.832 5.832a4.02 4.02 0 0 0 0 4.071l-6.249 6.25zm-8.4 0a3.885 3.885 0 0 1 -.961-2.127 3.959 3.959 0 0 1 1.137-3.328 4.077 4.077 0 0 1 5.657 0 3.944 3.944 0 0 1 1.141 3.329 3.892 3.892 0 0 1 -.966 2.126zm-23.782-1.118a3.018 3.018 0 0 1 2.128-.882h5.646l-2 2h-1.646a1 1 0 0 0 0 2h45v2h-47a3 3 0 0 1 -2.128-5.118zm53.128 33.118h-51a3 3 0 0 1 -3-3v-24.026a4.948 4.948 0 0 0 3 1.026h51v8h-7a5 5 0 0 0 0 10h7zm2-10h-9a3 3 0 0 1 0-6h9z" fill="url(#New_Gradient_Swatch_3)"/><circle cx="51" cy="47" fill="url(#New_Gradient_Swatch_3-2)" r="2"/></svg>