<svg id="Layer_1" height="512" viewBox="0 0 128 128" width="512" xmlns="http://www.w3.org/2000/svg" xmlns:xlink="http://www.w3.org/1999/xlink" data-name="Layer 1"><linearGradient id="linear-gradient" gradientUnits="userSpaceOnUse" x1="100.663" x2="22.572" y1="103.045" y2="24.955"><stop offset="0" stop-color="#4893ff"/><stop offset="1" stop-color="#00d980"/></linearGradient><path d="m76.625 29.134a1.75 1.75 0 0 1 1.75-1.75h1a1.75 1.75 0 0 1 0 3.5h-1a1.75 1.75 0 0 1 -1.75-1.75zm-52.15 67.982a6.983 6.983 0 0 1 -6.975-6.975v-52.282a6.983 6.983 0 0 1 6.975-6.975h47.087a1.75 1.75 0 0 0 0-3.5h-47.087a10.487 10.487 0 0 0 -10.475 10.475v52.282a10.487 10.487 0 0 0 10.475 10.475 1.75 1.75 0 0 0 0-3.5zm83.01-18.616a1.75 1.75 0 0 0 -1.75 1.75v9.891a6.983 6.983 0 0 1 -6.975 6.975h-66.51a1.75 1.75 0 0 0 0 3.5h66.51a10.487 10.487 0 0 0 10.475-10.475v-9.891a1.75 1.75 0 0 0 -1.75-1.75zm6.515-24.416v19.833a1.75 1.75 0 0 1 -1.75 1.75h-21.959a11.667 11.667 0 0 1 0-23.333h15.444v-12.725h-77.735a1.75 1.75 0 0 1 0-3.5h77.5a6.981 6.981 0 0 0 -6.744-5.225h-12.423a1.75 1.75 0 0 1 0-3.5h12.427a10.487 10.487 0 0 1 10.475 10.475v14.475h3.015a1.75 1.75 0 0 1 1.75 1.75zm-3.5 1.75h-20.209a8.167 8.167 0 0 0 0 16.333h20.209zm-19.63 3.75a4.417 4.417 0 1 1 -4.417 4.416 4.422 4.422 0 0 1 4.417-4.416z" fill="url(#linear-gradient)"/></svg>